<?xml version="1.0" standalone="no"?>
<!DOCTYPE svg PUBLIC "-//W3C//DTD SVG 20010904//EN"
 "http://www.w3.org/TR/2001/REC-SVG-20010904/DTD/svg10.dtd">
<svg version="1.0" xmlns="http://www.w3.org/2000/svg"
 width="720.000000pt" height="720.000000pt" viewBox="0 0 720.000000 720.000000"
 preserveAspectRatio="xMidYMid meet">
<metadata>
Created by potrace 1.14, written by Peter Selinger 2001-2017
</metadata>
<g transform="translate(0.000000,720.000000) scale(0.100000,-0.100000)"
fill="#000000" stroke="none">
<path d="M6277 5904 c-1 -1 -65 -5 -142 -9 -77 -3 -158 -8 -180 -10 -22 -2
-101 -6 -175 -10 -74 -3 -153 -8 -175 -10 -22 -2 -98 -7 -170 -10 -71 -4 -152
-8 -180 -10 -27 -2 -104 -6 -170 -10 -66 -3 -147 -8 -180 -10 -33 -2 -114 -6
-180 -10 -118 -6 -186 -10 -352 -20 -175 -11 -252 -15 -358 -20 -128 -6 -273
-14 -365 -20 -36 -2 -117 -7 -180 -10 -63 -4 -144 -8 -180 -10 -36 -2 -121 -7
-190 -10 -69 -3 -156 -7 -195 -10 -38 -3 -126 -7 -195 -10 -69 -3 -150 -8
-180 -10 -30 -2 -122 -6 -205 -10 -82 -3 -186 -8 -230 -11 -44 -2 -138 -6
-208 -9 -80 -3 -135 -9 -146 -17 -9 -7 -71 -74 -137 -148 -65 -74 -123 -140
-129 -146 -5 -6 -35 -39 -65 -74 -30 -35 -60 -68 -65 -74 -6 -6 -82 -94 -170
-196 -88 -102 -162 -187 -165 -190 -6 -6 -62 -69 -145 -165 -33 -37 -65 -73
-70 -79 -6 -6 -92 -106 -192 -223 -248 -289 -248 -285 -50 -526 19 -23 110
-136 203 -252 92 -115 179 -224 193 -241 14 -17 40 -48 56 -69 30 -39 101
-128 303 -380 297 -369 302 -374 423 -416 47 -16 88 -22 154 -22 84 0 110 2
175 18 14 3 43 10 65 14 22 5 125 27 229 50 104 23 199 43 210 45 12 2 136 27
276 55 140 27 273 53 295 57 22 4 49 8 60 11 38 7 120 22 150 27 17 3 71 12
120 21 50 9 144 25 210 35 66 11 129 21 140 24 11 2 45 7 75 11 30 4 62 9 70
10 8 2 38 6 65 9 28 4 75 11 105 16 30 5 78 12 105 15 28 3 81 9 118 14 l68 8
-5 -71 c-7 -79 -14 -205 -21 -359 -3 -56 -7 -124 -10 -152 -2 -27 -7 -108 -11
-180 -4 -71 -8 -146 -9 -165 -1 -19 -6 -96 -10 -170 -4 -74 -9 -148 -10 -165
-2 -16 -3 -42 -4 -57 -1 -28 -5 -30 -91 -42 -19 -3 -46 -8 -60 -10 -14 -2 -59
-10 -100 -16 -41 -6 -86 -13 -100 -16 -14 -2 -68 -11 -120 -19 -90 -15 -110
-18 -177 -30 -36 -6 -266 -43 -317 -51 -21 -3 -46 -7 -55 -9 -9 -1 -68 -11
-131 -20 -145 -23 -164 -36 -28 -19 57 6 132 15 168 18 36 4 81 8 100 11 19 2
62 6 95 10 75 7 141 15 180 20 17 2 59 7 95 10 36 3 121 12 190 20 69 8 157
17 195 20 39 3 81 8 95 10 14 2 48 7 75 9 126 13 162 17 185 21 14 2 57 7 95
10 266 23 264 22 404 236 62 96 175 271 252 389 77 118 163 251 192 295 48 75
129 200 351 540 83 126 273 419 639 983 70 108 168 259 218 334 49 76 96 155
103 175 26 77 5 133 -58 158 -44 18 -43 18 -356 -10 -30 -2 -93 -7 -140 -10
-47 -4 -101 -8 -120 -10 -19 -2 -71 -7 -115 -10 -44 -3 -100 -8 -125 -10 -25
-2 -81 -7 -125 -10 -44 -3 -100 -8 -125 -10 -62 -6 -150 -14 -240 -20 -41 -4
-97 -8 -125 -10 -27 -2 -81 -7 -120 -10 -38 -3 -90 -8 -115 -10 -25 -2 -79 -7
-120 -10 -41 -3 -100 -7 -130 -10 -30 -2 -89 -7 -130 -10 -82 -7 -146 -12
-230 -20 -30 -2 -84 -7 -120 -10 -36 -2 -92 -7 -125 -9 -33 -3 -91 -8 -130
-11 -122 -9 -188 -15 -245 -20 -30 -3 -86 -7 -125 -10 -38 -3 -90 -8 -115 -10
-25 -2 -81 -7 -125 -10 -44 -4 -100 -8 -125 -10 -25 -3 -79 -7 -120 -10 -41
-3 -95 -7 -120 -10 -25 -2 -83 -7 -130 -10 -47 -4 -101 -8 -120 -10 -44 -4
-166 -14 -250 -20 -36 -3 -85 -7 -110 -10 -25 -3 -83 -7 -130 -10 -47 -3 -103
-8 -125 -10 -22 -2 -78 -7 -125 -10 -47 -4 -101 -8 -120 -10 -19 -2 -75 -6
-125 -9 -49 -4 -112 -8 -140 -11 -27 -2 -81 -7 -120 -10 -38 -3 -90 -8 -115
-10 -25 -2 -83 -7 -130 -10 -47 -4 -101 -8 -120 -10 -19 -2 -75 -7 -125 -10
-49 -4 -103 -8 -120 -10 -16 -2 -75 -6 -130 -10 -55 -3 -108 -9 -117 -11 -10
-3 -18 -1 -18 4 0 8 182 232 428 527 9 11 37 45 62 75 25 30 55 66 66 80 12
14 88 106 170 205 223 272 337 409 350 422 22 22 57 30 164 38 58 4 107 8 110
10 3 1 50 6 105 10 55 3 111 8 125 10 14 2 66 6 115 10 50 3 110 8 135 11 103
10 139 14 210 19 41 4 91 8 110 10 19 1 71 6 115 10 44 4 96 8 117 10 20 2 65
6 100 9 96 8 178 16 233 21 28 3 82 7 120 10 65 5 92 7 220 19 28 3 82 8 120
11 39 4 88 8 110 10 95 8 175 15 240 20 39 3 90 8 115 10 111 11 149 15 215
20 114 9 177 15 225 20 25 2 81 7 125 11 44 3 94 8 110 10 17 1 70 6 119 9 48
4 96 8 105 10 9 1 61 6 116 10 55 4 114 9 130 10 17 2 64 6 105 9 41 4 91 9
110 11 19 3 69 7 110 10 88 6 206 16 345 31 60 6 184 33 205 45 9 5 -3 7 -33
6 -27 -1 -49 -3 -50 -3z m224 -1510 c10 -9 19 -25 19 -35 0 -16 -212 -362
-962 -1569 -104 -168 -194 -312 -199 -320 -8 -13 -207 -334 -336 -543 -26 -43
-72 -115 -100 -160 -29 -45 -53 -87 -53 -94 0 -35 -77 -60 -285 -93 -38 -6
-83 -13 -98 -16 -16 -2 -26 -1 -23 4 5 9 11 69 21 237 3 50 8 119 10 155 2 36
7 112 10 170 3 58 8 123 10 145 2 22 7 94 10 160 3 66 8 138 10 160 2 22 7 99
11 170 3 72 7 131 8 132 12 13 387 40 590 42 38 1 67 3 64 6 -4 5 -470 6 -593
2 l-50 -2 1 75 c0 70 12 290 19 370 1 19 6 87 9 150 4 63 9 138 11 165 3 28 7
97 10 155 9 179 23 382 27 385 2 2 41 6 88 10 47 4 96 9 110 10 14 1 57 5 95
9 125 11 189 17 225 21 19 2 69 6 110 10 41 3 91 8 110 10 45 5 137 13 220 20
105 8 182 15 220 20 19 3 69 7 110 11 41 3 91 7 110 9 19 2 64 6 100 9 122 12
185 18 187 19 1 1 36 3 78 5 62 3 81 0 96 -14z m-2006 -226 c-3 -35 -7 -106
-10 -159 -2 -53 -7 -136 -10 -185 -8 -117 -13 -206 -20 -334 -3 -58 -7 -132
-10 -165 -2 -33 -7 -112 -10 -175 -6 -126 -13 -199 -21 -211 -2 -4 -12 -7 -22
-7 -21 1 -218 -12 -240 -17 -9 -1 -57 -6 -107 -9 -49 -4 -101 -8 -115 -11 -14
-2 -56 -7 -95 -10 -38 -4 -86 -9 -105 -11 -64 -8 -345 -45 -370 -49 -14 -2
-47 -7 -75 -11 -27 -3 -59 -8 -70 -10 -10 -2 -37 -6 -60 -9 -22 -3 -78 -12
-125 -20 -47 -8 -107 -17 -135 -21 -27 -3 -59 -8 -70 -10 -11 -3 -35 -7 -54
-10 -18 -3 -43 -8 -55 -10 -20 -4 -111 -21 -166 -31 -14 -2 -56 -10 -95 -18
-38 -8 -85 -17 -104 -20 -19 -3 -103 -20 -185 -37 -174 -35 -219 -39 -299 -27
-112 18 -135 37 -283 229 -53 69 -120 157 -150 195 -224 290 -630 829 -644
854 -6 12 -7 21 -3 22 4 0 15 2 23 3 8 2 53 6 100 10 72 6 213 19 435 41 28 2
106 9 175 15 69 6 143 13 165 15 22 2 67 7 100 10 33 3 76 8 95 10 19 2 71 7
115 11 44 3 91 7 105 9 14 1 63 6 110 10 47 4 96 9 110 10 14 2 61 6 105 9 44
4 94 9 110 11 30 4 127 13 220 20 28 2 75 6 105 9 30 3 82 8 115 11 33 3 83 8
110 10 28 3 77 7 110 10 33 3 80 7 105 9 81 9 207 20 330 30 41 4 91 9 110 11
19 2 69 7 110 11 41 3 89 7 105 9 157 14 194 17 220 19 17 2 68 7 115 11 47 4
86 8 87 9 1 1 29 3 62 4 l61 3 -5 -63z m-3798 -150 c-3 -7 -5 -2 -5 12 0 14 2
19 5 13 2 -7 2 -19 0 -25z"/>
<path d="M3028 1323 c7 -3 16 -2 19 1 4 3 -2 6 -13 5 -11 0 -14 -3 -6 -6z"/>
</g>
</svg>
